<?xml version="1.0" encoding="UTF-8" standalone="no"?>
<!-- Created with Inkscape (http://www.inkscape.org/) -->

<svg
   width="144.05545mm"
   height="32.210236mm"
   viewBox="0 0 144.05545 32.210236"
   version="1.1"
   id="svg1"
   xml:space="preserve"
   sodipodi:docname="cbsoft-logo.svg"
   inkscape:version="1.4.3 (0d15f75, 2025-12-25)"
   xmlns:inkscape="http://www.inkscape.org/namespaces/inkscape"
   xmlns:sodipodi="http://sodipodi.sourceforge.net/DTD/sodipodi-0.dtd"
   xmlns:xlink="http://www.w3.org/1999/xlink"
   xmlns="http://www.w3.org/2000/svg"
   xmlns:svg="http://www.w3.org/2000/svg"><sodipodi:namedview
     id="namedview1"
     pagecolor="#ffffff"
     bordercolor="#000000"
     borderopacity="0.25"
     inkscape:showpageshadow="2"
     inkscape:pageopacity="0.0"
     inkscape:pagecheckerboard="0"
     inkscape:deskcolor="#d1d1d1"
     inkscape:document-units="mm"
     inkscape:zoom="0.96885017"
     inkscape:cx="259.06999"
     inkscape:cy="83.604259"
     inkscape:window-width="1920"
     inkscape:window-height="1011"
     inkscape:window-x="0"
     inkscape:window-y="0"
     inkscape:window-maximized="1"
     inkscape:current-layer="g35" /><defs
     id="defs1"><linearGradient
       id="linearGradient26"><stop
         style="stop-color:#ffffff;stop-opacity:0.91310316;"
         offset="0"
         id="stop25" /><stop
         style="stop-color:#ffffff;stop-opacity:0;"
         offset="0.82291359"
         id="stop26" /></linearGradient><linearGradient
       id="linearGradient8"><stop
         style="stop-color:#000000;stop-opacity:0.91310316;"
         offset="0"
         id="stop8" /><stop
         style="stop-color:#4a584b;stop-opacity:0;"
         offset="0.82291359"
         id="stop9" /></linearGradient><linearGradient
       id="linearGradient340"><stop
         style="stop-color:#d5491d;stop-opacity:1;"
         offset="0"
         id="stop340" /><stop
         style="stop-color:#d5491d;stop-opacity:0;"
         offset="1"
         id="stop341" /></linearGradient><linearGradient
       xlink:href="#linearGradient340"
       id="linearGradient98"
       gradientUnits="userSpaceOnUse"
       x1="107.55233"
       y1="114.14638"
       x2="117.21344"
       y2="114.14638" /><radialGradient
       xlink:href="#linearGradient8"
       id="radialGradient98"
       gradientUnits="userSpaceOnUse"
       gradientTransform="translate(211.14801,-169.9586)"
       cx="-51.917107"
       cy="105.27496"
       fx="-51.917107"
       fy="105.27496"
       r="33.250004" /><radialGradient
       xlink:href="#linearGradient8"
       id="radialGradient99"
       gradientUnits="userSpaceOnUse"
       gradientTransform="translate(219.1486,-241.83301)"
       cx="-51.917107"
       cy="105.27496"
       fx="-51.917107"
       fy="105.27496"
       r="33.250004" /><radialGradient
       xlink:href="#linearGradient8"
       id="radialGradient100"
       gradientUnits="userSpaceOnUse"
       gradientTransform="translate(180.92262,-158.74051)"
       cx="-44.468479"
       cy="105.45216"
       fx="-44.468479"
       fy="105.45216"
       r="33.250004" /><radialGradient
       xlink:href="#linearGradient8"
       id="radialGradient101"
       gradientUnits="userSpaceOnUse"
       gradientTransform="translate(144.97229,-189.41868)"
       cx="-51.917107"
       cy="105.27496"
       fx="-51.917107"
       fy="105.27496"
       r="33.250004" /><radialGradient
       xlink:href="#linearGradient8"
       id="radialGradient102"
       gradientUnits="userSpaceOnUse"
       gradientTransform="translate(195.29884,-241.6703)"
       cx="-51.917107"
       cy="105.27496"
       fx="-51.917107"
       fy="105.27496"
       r="33.250004" /><radialGradient
       xlink:href="#linearGradient8"
       id="radialGradient103"
       gradientUnits="userSpaceOnUse"
       gradientTransform="translate(228.00585,-175.04132)"
       cx="-51.917107"
       cy="105.27496"
       fx="-51.917107"
       fy="105.27496"
       r="33.250004" /><radialGradient
       xlink:href="#linearGradient8"
       id="radialGradient104"
       gradientUnits="userSpaceOnUse"
       gradientTransform="translate(117.2564,-241.4948)"
       cx="-51.917107"
       cy="105.27496"
       fx="-51.917107"
       fy="105.27496"
       r="33.250004" /><radialGradient
       xlink:href="#linearGradient8"
       id="radialGradient105"
       gradientUnits="userSpaceOnUse"
       gradientTransform="translate(144.44181,-259.02395)"
       cx="-51.917107"
       cy="105.27496"
       fx="-51.917107"
       fy="105.27496"
       r="33.250004" /><radialGradient
       xlink:href="#linearGradient8"
       id="radialGradient106"
       gradientUnits="userSpaceOnUse"
       gradientTransform="translate(186.11699,-260.21267)"
       cx="-51.917107"
       cy="105.27496"
       fx="-51.917107"
       fy="105.27496"
       r="33.250004" /><radialGradient
       xlink:href="#linearGradient26"
       id="radialGradient107"
       gradientUnits="userSpaceOnUse"
       gradientTransform="translate(146.4996,-132.6622)"
       cx="-51.917107"
       cy="105.27496"
       fx="-51.917107"
       fy="105.27496"
       r="33.250004" /><radialGradient
       xlink:href="#linearGradient26"
       id="radialGradient108"
       gradientUnits="userSpaceOnUse"
       gradientTransform="translate(225.30759,-154.72597)"
       cx="-50.224888"
       cy="112.08044"
       fx="-50.224888"
       fy="112.08044"
       r="33.250004" /><radialGradient
       xlink:href="#linearGradient8"
       id="radialGradient109"
       gradientUnits="userSpaceOnUse"
       gradientTransform="translate(144.8727,-237.37398)"
       cx="-51.917107"
       cy="105.27496"
       fx="-51.917107"
       fy="105.27496"
       r="33.250004" /><radialGradient
       xlink:href="#linearGradient26"
       id="radialGradient110"
       gradientUnits="userSpaceOnUse"
       gradientTransform="translate(224.05572,-248.49133)"
       cx="-51.917107"
       cy="105.27496"
       fx="-51.917107"
       fy="105.27496"
       r="33.250004" /><radialGradient
       xlink:href="#linearGradient26"
       id="radialGradient111"
       gradientUnits="userSpaceOnUse"
       gradientTransform="translate(222.43682,-137.1971)"
       cx="-54.081909"
       cy="107.97716"
       fx="-54.081909"
       fy="107.97716"
       r="33.250004" /><style
       type="text/css"
       id="style1">
   <![CDATA[
    .fil0 {fill:#1F1A17}
    .fil1 {fill:#DA251D}
   ]]>
  </style><linearGradient
       xlink:href="#linearGradient340"
       id="linearGradient372"
       gradientUnits="userSpaceOnUse"
       x1="107.55233"
       y1="114.14638"
       x2="117.21344"
       y2="114.14638" /><radialGradient
       xlink:href="#linearGradient8"
       id="radialGradient372"
       gradientUnits="userSpaceOnUse"
       gradientTransform="translate(211.14801,-169.9586)"
       cx="-51.917107"
       cy="105.27496"
       fx="-51.917107"
       fy="105.27496"
       r="33.250004" /><radialGradient
       xlink:href="#linearGradient8"
       id="radialGradient373"
       gradientUnits="userSpaceOnUse"
       gradientTransform="translate(219.1486,-241.83301)"
       cx="-51.917107"
       cy="105.27496"
       fx="-51.917107"
       fy="105.27496"
       r="33.250004" /><radialGradient
       xlink:href="#linearGradient8"
       id="radialGradient374"
       gradientUnits="userSpaceOnUse"
       gradientTransform="translate(180.92262,-158.74051)"
       cx="-44.468479"
       cy="105.45216"
       fx="-44.468479"
       fy="105.45216"
       r="33.250004" /><radialGradient
       xlink:href="#linearGradient8"
       id="radialGradient375"
       gradientUnits="userSpaceOnUse"
       gradientTransform="translate(144.97229,-189.41868)"
       cx="-51.917107"
       cy="105.27496"
       fx="-51.917107"
       fy="105.27496"
       r="33.250004" /><radialGradient
       xlink:href="#linearGradient8"
       id="radialGradient376"
       gradientUnits="userSpaceOnUse"
       gradientTransform="translate(195.29884,-241.6703)"
       cx="-51.917107"
       cy="105.27496"
       fx="-51.917107"
       fy="105.27496"
       r="33.250004" /><radialGradient
       xlink:href="#linearGradient8"
       id="radialGradient377"
       gradientUnits="userSpaceOnUse"
       gradientTransform="translate(228.00585,-175.04132)"
       cx="-51.917107"
       cy="105.27496"
       fx="-51.917107"
       fy="105.27496"
       r="33.250004" /><radialGradient
       xlink:href="#linearGradient8"
       id="radialGradient378"
       gradientUnits="userSpaceOnUse"
       gradientTransform="translate(117.2564,-241.4948)"
       cx="-51.917107"
       cy="105.27496"
       fx="-51.917107"
       fy="105.27496"
       r="33.250004" /><radialGradient
       xlink:href="#linearGradient8"
       id="radialGradient379"
       gradientUnits="userSpaceOnUse"
       gradientTransform="translate(144.44181,-259.02395)"
       cx="-51.917107"
       cy="105.27496"
       fx="-51.917107"
       fy="105.27496"
       r="33.250004" /><radialGradient
       xlink:href="#linearGradient8"
       id="radialGradient380"
       gradientUnits="userSpaceOnUse"
       gradientTransform="translate(186.11699,-260.21267)"
       cx="-51.917107"
       cy="105.27496"
       fx="-51.917107"
       fy="105.27496"
       r="33.250004" /><radialGradient
       xlink:href="#linearGradient26"
       id="radialGradient381"
       gradientUnits="userSpaceOnUse"
       gradientTransform="translate(146.4996,-132.6622)"
       cx="-51.917107"
       cy="105.27496"
       fx="-51.917107"
       fy="105.27496"
       r="33.250004" /><radialGradient
       xlink:href="#linearGradient26"
       id="radialGradient382"
       gradientUnits="userSpaceOnUse"
       gradientTransform="translate(225.30759,-154.72597)"
       cx="-50.224888"
       cy="112.08044"
       fx="-50.224888"
       fy="112.08044"
       r="33.250004" /><radialGradient
       xlink:href="#linearGradient8"
       id="radialGradient383"
       gradientUnits="userSpaceOnUse"
       gradientTransform="translate(144.8727,-237.37398)"
       cx="-51.917107"
       cy="105.27496"
       fx="-51.917107"
       fy="105.27496"
       r="33.250004" /><radialGradient
       xlink:href="#linearGradient26"
       id="radialGradient384"
       gradientUnits="userSpaceOnUse"
       gradientTransform="translate(224.05572,-248.49133)"
       cx="-51.917107"
       cy="105.27496"
       fx="-51.917107"
       fy="105.27496"
       r="33.250004" /><radialGradient
       xlink:href="#linearGradient26"
       id="radialGradient385"
       gradientUnits="userSpaceOnUse"
       gradientTransform="translate(222.43682,-137.1971)"
       cx="-54.081909"
       cy="107.97716"
       fx="-54.081909"
       fy="107.97716"
       r="33.250004" /></defs><g
     id="layer1"
     transform="translate(-247.75312,150.06192)"><g
       id="g98"
       transform="matrix(0.22349062,0,0,0.22349062,304.59657,-92.392042)"><g
         id="g97"
         transform="translate(-301.93635)"><g
           id="g35"
           transform="matrix(0.88461247,0,0,0.88461247,23.427562,18.436692)"><g
             id="text371"><path
               style="stroke-width:0.897536"
               d="m 255.09648,-284.36993 q 10.9606,0 19.89588,3.93152 l -3.45498,15.84522 -1.3105,0.71483 q -3.33584,-2.26361 -7.62477,-3.45498 -4.1698,-1.3105 -8.22045,-1.3105 -8.57787,0 -12.74766,5.36116 -4.05066,5.36117 -4.05066,16.91745 0,25.01877 17.75141,25.01877 3.93152,0 8.33959,-1.07223 4.40807,-1.07223 7.98218,-2.97842 l 1.66792,0.95309 -1.54878,15.84522 q -8.33959,3.33584 -17.98969,3.33584 -17.98969,0 -27.28237,-10.00751 -9.29269,-10.00751 -9.29269,-28.95029 0,-19.18106 9.88837,-29.66511 9.88837,-10.48406 27.9972,-10.48406 z m 73.74566,38.24298 q 7.74391,1.90619 11.31802,6.31426 3.57411,4.28893 3.57411,11.43715 0,11.55629 -9.29269,17.15573 -9.17355,5.4803 -27.40151,5.4803 -11.9137,0 -22.75516,-0.71482 h -0.11914 l 1.07223,-22.75517 -1.07223,-54.0882 30.2608,-0.11913 q 12.27111,0 19.18106,5.00375 6.90994,5.00375 6.90994,14.41558 0,6.07599 -3.09756,10.72233 -2.97843,4.5272 -8.57787,7.14822 z m -7.98217,-15.24954 q 0,-4.88461 -3.09757,-6.79081 -2.97842,-1.90619 -10.84146,-1.90619 h -3.81239 l -0.47655,18.70451 10.24579,0.47655 q 4.05065,-1.19137 5.95685,-3.69325 2.02533,-2.50188 2.02533,-6.79081 z m -10.24579,42.29364 q 6.4334,0 10.00751,-2.62102 3.57411,-2.62101 3.57411,-7.50563 0,-3.69324 -2.2636,-5.83771 -2.2636,-2.2636 -7.02908,-3.33584 l -12.50939,0.23828 -0.11914,7.02908 0.35741,11.55629 q 6.19513,0.47655 7.98218,0.47655 z m 71.60116,-65.40622 q 10.24578,0 20.72984,4.05066 l -3.09757,16.20263 -2.85928,1.07224 q -4.52721,-2.97843 -9.05442,-4.64635 -4.5272,-1.66791 -7.86304,-1.66791 -3.93152,0 -6.31426,2.02533 -2.2636,1.90619 -2.2636,4.5272 0,2.97843 2.85929,5.12289 2.97842,2.02533 9.29268,4.88462 6.67167,3.09756 10.72233,5.71858 4.1698,2.50187 7.14822,6.7908 3.09756,4.28894 3.09756,10.48406 0,6.90995 -3.81238,12.50939 -3.69325,5.59943 -10.60319,8.93527 -6.90995,3.2167 -15.96436,3.2167 -12.03284,0 -23.8274,-4.76548 l 2.74015,-17.27487 2.02533,-1.19137 q 5.00375,4.1698 10.84147,6.55254 5.95685,2.2636 10.24578,2.2636 4.5272,0 6.79081,-2.02533 2.38274,-2.02533 2.38274,-4.76548 0,-3.2167 -2.97843,-5.36116 -2.97842,-2.14447 -9.29268,-5.00376 -6.4334,-2.97842 -10.6032,-5.4803 -4.05065,-2.62101 -7.02908,-6.90994 -2.97842,-4.28894 -2.97842,-10.48406 0,-7.02908 3.69324,-12.62852 3.81239,-5.71858 10.48406,-8.93528 6.79081,-3.2167 15.48781,-3.2167 z m 65.88256,0 q 16.44091,0 25.37618,9.88837 8.93528,9.76924 8.93528,27.87806 0,19.77675 -9.76923,30.73735 -9.76924,10.84147 -27.52065,10.84147 -16.32177,0 -25.25705,-10.00751 -8.93527,-10.12665 -8.93527,-28.59288 0,-19.53847 9.6501,-30.14166 9.76923,-10.6032 27.52064,-10.6032 z m -1.66791,15.48781 q -5.59944,0 -8.93528,2.26361 -3.33584,2.14446 -4.88462,7.14822 -1.54878,4.88461 -1.54878,13.34334 0,10.12665 1.54878,15.96436 1.54878,5.71858 4.88462,8.22045 3.45497,2.50188 9.29269,2.50188 5.71857,0 9.05441,-2.14447 3.33583,-2.2636 4.76548,-7.26735 1.54878,-5.00376 1.54878,-13.70076 0,-10.00751 -1.54878,-15.72608 -1.54878,-5.71858 -4.88462,-8.10132 -3.33583,-2.50188 -9.29268,-2.50188 z m 65.64418,0.83396 -0.35741,17.87055 h 9.65009 l 13.34335,-0.35741 1.07223,1.42965 -1.19137,14.29644 -14.65385,-0.35741 h -8.45873 l -0.11913,4.16979 0.71482,24.66136 h -19.41933 l 1.07223,-22.75517 -1.07223,-54.0882 h 48.13135 l 1.07223,1.42965 -1.31051,14.29644 -18.58537,-0.71482 z m 90.54405,-13.70075 -1.07224,14.1773 -15.01126,-0.71482 h -3.33583 l -0.59569,37.28988 0.71482,24.66136 h -19.30019 l 1.07223,-22.75517 -0.59568,-39.19607 h -3.57411 l -15.1304,0.71482 -1.19137,-1.42964 1.19137,-14.17731 h 55.75611 z m 23.35065,0 -4.76548,28.23547 -8.697,1.3105 -1.42964,-1.19137 -0.71482,-28.71201 14.65385,-0.9531 z"
               id="path385" /><path
               style="font-size:130.11px;stroke-width:0.897536"
               d="m 663.67408,-283.86978 q 9.88836,0 16.13364,5.07429 6.37539,4.94418 6.37539,13.66155 0,5.72484 -3.51297,12.62067 -3.38286,6.89583 -11.31957,16.9143 l -9.49803,12.36045 0.26022,0.52044 h 16.65408 l 12.62067,-1.17099 1.04088,1.56132 -2.34198,16.78419 -17.56485,-0.91077 h -31.2264 l -4.94418,0.39033 -1.04088,-0.78066 v -12.75078 l 17.43474,-20.03694 q 7.02594,-8.32704 10.01847,-12.62067 2.99253,-4.29363 2.99253,-7.8066 0,-2.73231 -1.95165,-4.42374 -1.82154,-1.82154 -5.2044,-1.82154 -4.03341,0 -8.84748,2.47209 -4.81407,2.34198 -8.84748,6.37539 h -2.34198 l -3.38286,-16.00353 q 14.83254,-10.4088 28.49409,-10.4088 z m 69.73888,29.66508 q 6.89583,0 11.84001,3.12264 5.07429,3.12264 7.67649,8.45715 2.6022,5.2044 2.6022,11.44968 0,6.89583 -3.25275,12.88089 -3.25275,5.98506 -9.75825,9.62814 -6.5055,3.64308 -15.74331,3.64308 -13.14111,0 -20.42727,-7.8066 -7.28616,-7.93671 -7.28616,-21.85848 0,-15.48309 9.75825,-28.36398 9.88836,-12.88089 27.71343,-21.07782 h 1.04088 l 13.66155,9.1077 v 2.08176 q -12.62067,4.81407 -19.64661,9.49803 -7.02594,4.68396 -10.4088,10.79913 l 0.91077,1.04088 q 5.59473,-2.6022 11.31957,-2.6022 z m -5.85495,35.78025 q 4.55385,0 6.89583,-2.6022 2.47209,-2.73231 2.47209,-7.93671 0,-10.92924 -9.62814,-10.92924 -4.55385,0 -9.62814,2.86242 v 2.08176 q 0,8.58726 2.08176,12.62067 2.08176,3.9033 7.8066,3.9033 z"
               id="path386" /></g><path
             d="m 226.81766,-188.79371 q 2.7255,0 5.01493,0.79948 l -0.94484,4.46983 -0.39974,0.21804 q -0.79949,-0.47242 -1.88969,-0.76314 -1.05386,-0.29072 -2.07139,-0.29072 -1.96236,0 -2.9072,1.0902 -0.94485,1.09021 -0.94485,3.56133 0,2.79819 1.01753,4.14277 1.05386,1.30825 3.16159,1.30825 0.98118,0 2.07138,-0.21804 1.12654,-0.21804 1.96237,-0.58144 l 0.47242,0.29072 -0.47242,4.43349 q -2.07139,0.61778 -4.4335,0.61778 -4.68787,0 -7.12266,-2.39845 -2.39844,-2.43478 -2.39844,-6.9773 0,-4.65153 2.58015,-7.159 2.58014,-2.5438 7.30436,-2.5438 z m 16.13494,-0.0363 q 4.21545,0 6.50488,2.39844 2.32576,2.36211 2.32576,6.68658 0,4.7969 -2.50746,7.44972 -2.50747,2.61649 -7.12266,2.61649 -4.21546,0 -6.54122,-2.43479 -2.28943,-2.43478 -2.28943,-6.86828 0,-4.68787 2.50747,-7.26802 2.50747,-2.58014 7.12266,-2.58014 z m -0.50876,4.36081 q -1.30825,0 -2.03505,0.43608 -0.7268,0.39974 -1.05386,1.4536 -0.32706,1.01753 -0.32706,2.87087 0,2.36211 0.32706,3.63401 0.3634,1.23557 1.12654,1.74433 0.76314,0.50876 2.14407,0.50876 1.34458,0 2.07138,-0.39974 0.72681,-0.43608 1.05387,-1.45361 0.32706,-1.01752 0.32706,-2.9072 0,-2.32577 -0.32706,-3.59767 -0.32706,-1.27191 -1.12655,-1.78067 -0.76314,-0.50876 -2.1804,-0.50876 z m 29.54437,8.4309 0.21804,5.99612 h -5.95977 l -6.28684,-10.24791 h -0.29072 l -0.0363,3.63401 0.1817,6.6139 h -4.94226 l 0.25439,-5.41468 -0.25439,-13.04609 h 5.92344 l 6.28684,10.21157 h 0.3634 l -0.1817,-10.02987 5.01493,-0.29072 z m 14.17259,-12.75537 q 3.23427,0 5.74174,0.87216 l -1.30825,4.90591 h -0.43608 q -1.48994,-0.76314 -2.61648,-1.0902 -1.09021,-0.32706 -2.39845,-0.32706 -1.52628,0 -2.39845,0.47242 -0.83582,0.43608 -1.23556,1.59897 -0.39974,1.12654 -0.39974,3.23426 0,2.10773 0.39974,3.23427 0.39974,1.09021 1.30824,1.56263 0.90851,0.43608 2.54381,0.43608 0.76314,0 1.56262,-0.25438 v -0.87216 l -0.0727,-3.08891 5.01494,-0.32706 -0.10902,2.50746 v 4.9786 q -3.59767,1.23556 -6.86828,1.23556 -4.68787,0 -7.08632,-2.36211 -2.39845,-2.3621 -2.39845,-6.75926 0,-4.86957 2.76185,-7.41338 2.79819,-2.5438 7.99482,-2.5438 z m 21.62235,11.51981 q 1.70798,2.58015 4.39715,5.95978 l -0.0727,0.61778 q -2.79819,0.83582 -5.30565,0.98118 l -0.76315,-0.5451 q -1.52628,-2.79819 -2.79818,-5.41468 h -2.39845 l 0.21804,5.63272 h -5.45102 l 0.25439,-5.41468 -0.25439,-13.04609 8.75797,-0.0363 q 3.23427,0 4.97859,1.48994 1.74433,1.45361 1.74433,4.17911 0,1.67165 -0.87217,3.12525 -0.87216,1.45361 -2.43478,2.47113 z m -2.47113,-5.05127 q 0,-1.19923 -0.69046,-1.74433 -0.65412,-0.5451 -2.14407,-0.61778 l -1.41726,0.10902 -0.10902,4.86957 2.43479,0.14536 q 1.01752,-0.3634 1.4536,-1.01752 0.47242,-0.69046 0.47242,-1.74432 z m 23.22126,7.8858 0.32706,0.3634 -0.3634,4.03375 h -13.33681 l 0.25438,-5.41468 -0.25438,-13.04609 h 13.51851 l 0.32706,0.39974 -0.3634,3.99741 -4.79689,-0.1817 h -3.23427 l -0.0727,2.83453 h 3.12525 l 3.16159,-0.10902 0.29072,0.39974 -0.32706,4.03375 -3.48865,-0.10902 -2.87087,0.0363 -0.0363,1.19922 0.0727,1.74433 h 3.05257 z m 10.6113,-14.39068 q 2.65282,0 5.30565,0.94484 l -0.79948,4.72421 -0.79948,0.1817 q -1.16289,-0.83582 -2.39845,-1.30824 -1.19922,-0.47242 -2.03505,-0.47242 -0.76314,0 -1.19922,0.3634 -0.39974,0.32706 -0.39974,0.83582 0,0.61778 0.61778,1.01752 0.61778,0.39975 2.10773,1.01753 1.59896,0.61778 2.65282,1.23556 1.09021,0.58144 1.85335,1.67165 0.79948,1.0902 0.79948,2.7255 0,1.63531 -0.83582,3.05257 -0.79948,1.41727 -2.58015,2.28943 -1.74432,0.87216 -4.36081,0.87216 -3.16159,0 -6.17782,-1.0902 l 0.76315,-4.90592 0.5451,-0.39974 q 1.2719,1.12655 2.83453,1.81701 1.56262,0.65412 2.7255,0.65412 0.76314,0 1.23557,-0.3634 0.47242,-0.3634 0.47242,-0.9085 0,-0.61779 -0.61778,-1.01753 -0.61779,-0.39974 -2.10773,-1.01752 -1.6353,-0.65412 -2.72551,-1.2719 -1.05386,-0.61779 -1.85334,-1.70799 -0.76314,-1.0902 -0.76314,-2.76185 0,-1.74432 0.9085,-3.12524 0.94484,-1.41727 2.68916,-2.21675 1.74433,-0.83582 4.14278,-0.83582 z m 16.53473,0 q 2.65283,0 5.30566,0.94484 l -0.79948,4.72421 -0.79949,0.1817 q -1.16288,-0.83582 -2.39844,-1.30824 -1.19923,-0.47242 -2.03505,-0.47242 -0.76314,0 -1.19922,0.3634 -0.39974,0.32706 -0.39974,0.83582 0,0.61778 0.61778,1.01752 0.61778,0.39975 2.10772,1.01753 1.59897,0.61778 2.65283,1.23556 1.0902,0.58144 1.85335,1.67165 0.79948,1.0902 0.79948,2.7255 0,1.63531 -0.83582,3.05257 -0.79949,1.41727 -2.58015,2.28943 -1.74433,0.87216 -4.36081,0.87216 -3.16159,0 -6.17782,-1.0902 l 0.76314,-4.90592 0.5451,-0.39974 q 1.27191,1.12655 2.83453,1.81701 1.56263,0.65412 2.72551,0.65412 0.76314,0 1.23556,-0.3634 0.47242,-0.3634 0.47242,-0.9085 0,-0.61779 -0.61778,-1.01753 -0.61778,-0.39974 -2.10772,-1.01752 -1.63531,-0.65412 -2.72551,-1.2719 -1.05386,-0.61779 -1.85335,-1.70799 -0.76314,-1.0902 -0.76314,-2.76185 0,-1.74432 0.9085,-3.12524 0.94485,-1.41727 2.68917,-2.21675 1.74433,-0.83582 4.14277,-0.83582 z m 17.73397,0 q 4.21545,0 6.50488,2.39844 2.32576,2.36211 2.32576,6.68658 0,4.7969 -2.50746,7.44972 -2.50747,2.61649 -7.12266,2.61649 -4.21545,0 -6.54122,-2.43479 -2.28943,-2.43478 -2.28943,-6.86828 0,-4.68787 2.50747,-7.26802 2.50747,-2.58014 7.12266,-2.58014 z m -0.50876,4.36081 q -1.30824,0 -2.03505,0.43608 -0.7268,0.39974 -1.05386,1.4536 -0.32706,1.01753 -0.32706,2.87087 0,2.36211 0.32706,3.63401 0.3634,1.23557 1.12654,1.74433 0.76315,0.50876 2.14407,0.50876 1.34458,0 2.07139,-0.39974 0.7268,-0.43608 1.05386,-1.45361 0.32706,-1.01752 0.32706,-2.9072 0,-2.32577 -0.32706,-3.59767 -0.32706,-1.27191 -1.12654,-1.78067 -0.76315,-0.50876 -2.18041,-0.50876 z m 30.05315,4.90591 q 1.88968,0.50876 2.76185,1.56263 0.9085,1.01752 0.9085,2.65282 0,2.83453 -2.39845,4.17912 -2.39845,1.30824 -7.19534,1.30824 -2.83453,0 -6.17782,-0.1817 l 0.25439,-5.41468 -0.25439,-13.04609 8.21287,-0.0363 q 3.23427,0 5.05127,1.23556 1.81701,1.19923 1.81701,3.48865 0,1.41727 -0.79949,2.54381 -0.76314,1.0902 -2.1804,1.70798 z m -2.68917,-3.45231 q 0,-1.01752 -0.7268,-1.38092 -0.7268,-0.3634 -2.76185,-0.3634 h -0.5451 l -0.10902,3.74303 2.36211,0.0727 q 0.94484,-0.25438 1.34458,-0.7268 0.43608,-0.47242 0.43608,-1.34459 z m -2.25309,9.44843 q 1.41727,0 2.18041,-0.50876 0.79948,-0.50876 0.79948,-1.52629 0,-0.65412 -0.47242,-1.0902 -0.47242,-0.43608 -1.48994,-0.7268 l -2.97989,0.0727 -0.0363,1.34458 0.0727,2.28943 q 1.01752,0.14536 1.92602,0.14536 z m 24.4205,-3.70669 q 1.70799,2.58015 4.39715,5.95978 l -0.0727,0.61778 q -2.79818,0.83582 -5.30565,0.98118 l -0.76314,-0.5451 q -1.52629,-2.79819 -2.79819,-5.41468 h -2.39845 l 0.21804,5.63272 h -5.45101 l 0.25438,-5.41468 -0.25438,-13.04609 8.75796,-0.0363 q 3.23427,0 4.9786,1.48994 1.74432,1.45361 1.74432,4.17911 0,1.67165 -0.87216,3.12525 -0.87216,1.45361 -2.43479,2.47113 z m -2.47113,-5.05127 q 0,-1.19923 -0.69046,-1.74433 -0.65412,-0.5451 -2.14406,-0.61778 l -1.41727,0.10902 -0.10902,4.86957 2.43479,0.14536 q 1.01752,-0.3634 1.4536,-1.01752 0.47242,-0.69046 0.47242,-1.74432 z m 26.23749,12.28295 h -5.5237 l -0.50876,-2.94355 -0.0727,-0.29072 -3.37963,-0.0727 -2.90721,0.0727 -0.5451,3.23427 h -5.34199 l 6.14147,-18.46077 h 6.54122 z m -7.159,-7.30436 -1.63531,-6.2505 h -0.32706 l -1.9987,6.2505 1.96236,0.0363 z m 17.33418,-11.48347 q 2.65283,0 5.30565,0.94484 l -0.79948,4.72421 -0.79948,0.1817 q -1.16288,-0.83582 -2.39845,-1.30824 -1.19922,-0.47242 -2.03504,-0.47242 -0.76315,0 -1.19923,0.3634 -0.39974,0.32706 -0.39974,0.83582 0,0.61778 0.61778,1.01752 0.61779,0.39975 2.10773,1.01753 1.59896,0.61778 2.65283,1.23556 1.0902,0.58144 1.85334,1.67165 0.79948,1.0902 0.79948,2.7255 0,1.63531 -0.83582,3.05257 -0.79948,1.41727 -2.58015,2.28943 -1.74432,0.87216 -4.36081,0.87216 -3.16159,0 -6.17781,-1.0902 l 0.76314,-4.90592 0.5451,-0.39974 q 1.2719,1.12655 2.83453,1.81701 1.56262,0.65412 2.7255,0.65412 0.76315,0 1.23557,-0.3634 0.47242,-0.3634 0.47242,-0.9085 0,-0.61779 -0.61778,-1.01753 -0.61778,-0.39974 -2.10773,-1.01752 -1.6353,-0.65412 -2.72551,-1.2719 -1.05386,-0.61779 -1.85334,-1.70799 -0.76314,-1.0902 -0.76314,-2.76185 0,-1.74432 0.9085,-3.12524 0.94484,-1.41727 2.68917,-2.21675 1.74432,-0.83582 4.14277,-0.83582 z m 14.71774,12.82805 0.21804,5.95978 h -5.45102 l 0.25438,-5.41468 -0.25438,-13.04609 h 5.56004 z m 16.75277,1.85335 -0.32706,4.10643 h -11.30177 l 0.25438,-5.41468 -0.25438,-13.04609 h 5.56003 l -0.32706,12.50099 0.0727,1.48995 h 6.03246 z m 16.20765,-0.29072 0.32706,0.3634 -0.3634,4.03375 h -13.33682 l 0.25438,-5.41468 -0.25438,-13.04609 h 13.51852 l 0.32706,0.39974 -0.3634,3.99741 -4.7969,-0.1817 h -3.23427 l -0.0727,2.83453 h 3.12525 l 3.16159,-0.10902 0.29072,0.39974 -0.32706,4.03375 -3.48865,-0.10902 -2.87087,0.0363 -0.0363,1.19922 0.0727,1.74433 h 3.05257 z m 8.79429,-1.56263 0.21804,5.95978 h -5.45101 l 0.25438,-5.41468 -0.25438,-13.04609 h 5.56003 z m 17.44322,-1.2719 q 1.70798,2.58015 4.39715,5.95978 l -0.0727,0.61778 q -2.79819,0.83582 -5.30565,0.98118 l -0.76314,-0.5451 q -1.52629,-2.79819 -2.79819,-5.41468 h -2.39845 l 0.21804,5.63272 h -5.45101 l 0.25438,-5.41468 -0.25438,-13.04609 8.75796,-0.0363 q 3.23427,0 4.97859,1.48994 1.74433,1.45361 1.74433,4.17911 0,1.67165 -0.87216,3.12525 -0.87217,1.45361 -2.43479,2.47113 z m -2.47113,-5.05127 q 0,-1.19923 -0.69046,-1.74433 -0.65412,-0.5451 -2.14406,-0.61778 l -1.41727,0.10902 -0.10902,4.86957 2.43479,0.14536 q 1.01752,-0.3634 1.4536,-1.01752 0.47242,-0.69046 0.47242,-1.74432 z m 17.7339,-6.50488 q 4.21545,0 6.50488,2.39844 2.32576,2.36211 2.32576,6.68658 0,4.7969 -2.50746,7.44972 -2.50747,2.61649 -7.12266,2.61649 -4.21545,0 -6.54122,-2.43479 -2.28943,-2.43478 -2.28943,-6.86828 0,-4.68787 2.50747,-7.26802 2.50747,-2.58014 7.12266,-2.58014 z m -0.50876,4.36081 q -1.30825,0 -2.03505,0.43608 -0.7268,0.39974 -1.05386,1.4536 -0.32706,1.01753 -0.32706,2.87087 0,2.36211 0.32706,3.63401 0.3634,1.23557 1.12654,1.74433 0.76314,0.50876 2.14407,0.50876 1.34458,0 2.07138,-0.39974 0.72681,-0.43608 1.05387,-1.45361 0.32706,-1.01752 0.32706,-2.9072 0,-2.32577 -0.32706,-3.59767 -0.32706,-1.27191 -1.12655,-1.78067 -0.76314,-0.50876 -2.1804,-0.50876 z m 26.49183,-4.17911 q 4.28813,0 6.57756,2.25308 2.32577,2.21675 2.32577,6.39586 0,4.94226 -2.65283,7.59508 -2.61649,2.61649 -7.55874,2.61649 -3.27061,0 -7.23168,-0.25438 l 0.25438,-5.41468 -0.25438,-13.04609 z m -0.32706,14.75408 q 1.70799,0 2.61649,-1.12654 0.94484,-1.12655 0.94484,-3.67035 0,-3.08891 -0.87216,-4.36082 -0.83582,-1.2719 -2.83453,-1.2719 -1.19922,0 -2.61649,0.10902 l -0.21804,8.21286 0.0727,1.85335 q 1.70799,0.25438 2.90721,0.25438 z m 25.69234,-0.5451 0.32706,0.3634 -0.3634,4.03375 h -13.33682 l 0.25438,-5.41468 -0.25438,-13.04609 h 13.51852 l 0.32706,0.39974 -0.3634,3.99741 -4.79689,-0.1817 h -3.23427 l -0.0727,2.83453 h 3.12525 l 3.16158,-0.10902 0.29072,0.39974 -0.32706,4.03375 -3.48865,-0.10902 -2.87086,0.0363 -0.0363,1.19922 0.0727,1.74433 h 3.05257 z m 15.88056,-14.39068 q 2.65282,0 5.30565,0.94484 l -0.79948,4.72421 -0.79948,0.1817 q -1.16289,-0.83582 -2.39845,-1.30824 -1.19922,-0.47242 -2.03505,-0.47242 -0.76314,0 -1.19922,0.3634 -0.39974,0.32706 -0.39974,0.83582 0,0.61778 0.61778,1.01752 0.61778,0.39975 2.10773,1.01753 1.59896,0.61778 2.65283,1.23556 1.0902,0.58144 1.85334,1.67165 0.79948,1.0902 0.79948,2.7255 0,1.63531 -0.83582,3.05257 -0.79948,1.41727 -2.58015,2.28943 -1.74432,0.87216 -4.36081,0.87216 -3.16159,0 -6.17782,-1.0902 l 0.76315,-4.90592 0.5451,-0.39974 q 1.2719,1.12655 2.83453,1.81701 1.56262,0.65412 2.7255,0.65412 0.76315,0 1.23557,-0.3634 0.47242,-0.3634 0.47242,-0.9085 0,-0.61779 -0.61778,-1.01753 -0.61779,-0.39974 -2.10773,-1.01752 -1.6353,-0.65412 -2.72551,-1.2719 -1.05386,-0.61779 -1.85334,-1.70799 -0.76314,-1.0902 -0.76314,-2.76185 0,-1.74432 0.9085,-3.12524 0.94484,-1.41727 2.68917,-2.21675 1.74432,-0.83582 4.14277,-0.83582 z m 17.73395,0 q 4.21545,0 6.50488,2.39844 2.32576,2.36211 2.32576,6.68658 0,4.7969 -2.50746,7.44972 -2.50747,2.61649 -7.12266,2.61649 -4.21545,0 -6.54122,-2.43479 -2.28943,-2.43478 -2.28943,-6.86828 0,-4.68787 2.50747,-7.26802 2.50747,-2.58014 7.12266,-2.58014 z m -0.50876,4.36081 q -1.30825,0 -2.03505,0.43608 -0.7268,0.39974 -1.05386,1.4536 -0.32706,1.01753 -0.32706,2.87087 0,2.36211 0.32706,3.63401 0.3634,1.23557 1.12654,1.74433 0.76314,0.50876 2.14407,0.50876 1.34458,0 2.07138,-0.39974 0.72681,-0.43608 1.05387,-1.45361 0.32706,-1.01752 0.32706,-2.9072 0,-2.32577 -0.32706,-3.59767 -0.32706,-1.27191 -1.12655,-1.78067 -0.76314,-0.50876 -2.1804,-0.50876 z m 17.69751,0.1817 -0.0727,3.52499 h 2.28943 l 3.45231,-0.10902 0.32706,0.39974 -0.3634,4.03375 -3.81571,-0.10902 -1.99871,0.0363 v 0.50876 l 0.21804,5.95978 h -5.48735 l 0.25438,-5.41468 -0.25438,-13.04609 h 12.68269 l 0.29072,0.39974 -0.3634,3.99741 -4.79689,-0.1817 z m 24.09341,-3.81571 -0.32706,4.07009 -3.85205,-0.21804 h -0.65412 l -0.14536,8.2492 0.21804,5.95978 h -5.45102 l 0.25439,-5.41468 -0.14536,-8.7943 h -0.65413 l -3.92473,0.21804 -0.3634,-0.39974 0.32706,-4.07009 h 14.42702 z m 22.67615,18.06103 h -5.88709 l -2.10773,-6.86828 h -0.32706 l -2.03505,6.86828 h -5.92343 l -4.7969,-18.46077 h 5.41468 l 0.29072,2.79819 2.28943,10.02986 h 0.32706 l 2.5438,-8.53992 -1.0902,-4.28813 h 5.63272 l 0.39974,3.37963 2.43478,9.44842 h 0.36341 l 2.76184,-9.7028 0.5451,-3.12525 h 5.12396 z m 24.96562,0 h -5.52369 l -0.50876,-2.94355 -0.0727,-0.29072 -3.37963,-0.0727 -2.90721,0.0727 -0.5451,3.23427 h -5.342 l 6.14148,-18.46077 h 6.54122 z m -7.159,-7.30436 -1.6353,-6.2505 h -0.32706 l -1.99871,6.2505 1.96237,0.0363 z m 22.45814,0.0727 q 1.70798,2.58015 4.39715,5.95978 l -0.0727,0.61778 q -2.79819,0.83582 -5.30565,0.98118 l -0.76315,-0.5451 q -1.52628,-2.79819 -2.79818,-5.41468 h -2.39845 l 0.21804,5.63272 h -5.45101 l 0.25438,-5.41468 -0.25438,-13.04609 8.75796,-0.0363 q 3.23427,0 4.97859,1.48994 1.74433,1.45361 1.74433,4.17911 0,1.67165 -0.87216,3.12525 -0.87217,1.45361 -2.43479,2.47113 z m -2.47113,-5.05127 q 0,-1.19923 -0.69046,-1.74433 -0.65412,-0.5451 -2.14406,-0.61778 l -1.41727,0.10902 -0.10902,4.86957 2.43479,0.14536 q 1.01752,-0.3634 1.4536,-1.01752 0.47242,-0.69046 0.47242,-1.74432 z m 23.22123,7.8858 0.32706,0.3634 -0.3634,4.03375 h -13.33682 l 0.25438,-5.41468 -0.25438,-13.04609 h 13.51852 l 0.32706,0.39974 -0.3634,3.99741 -4.7969,-0.1817 h -3.23427 l -0.0727,2.83453 h 3.12525 l 3.16159,-0.10902 0.29072,0.39974 -0.32706,4.03375 -3.48865,-0.10902 -2.87087,0.0363 -0.0363,1.19922 0.0727,1.74433 h 3.05257 z"
             id="text372"
             aria-label="Congresso Brasileiro de Software" /></g><g
           id="g370"
           transform="translate(25.244876,-332.9826)"><rect
             style="fill:#077875;fill-opacity:1;stroke:none;stroke-width:0.472954;stroke-linecap:butt;stroke-linejoin:miter;stroke-dasharray:none;stroke-opacity:1"
             id="rect273"
             width="13.545961"
             height="14.836533"
             x="147.70905"
             y="128.25676" /><rect
             style="opacity:1;fill:#b43425;fill-opacity:1;stroke:none;stroke-width:1;stroke-linecap:butt;stroke-linejoin:miter;stroke-dasharray:none;stroke-opacity:1"
             id="rect274"
             width="10.846861"
             height="18.42087"
             x="140.99159"
             y="128.81975"
             ry="4.2632564e-14" /><rect
             style="opacity:1;fill:#f09415;fill-opacity:1;stroke:#f09415;stroke-width:1;stroke-linecap:butt;stroke-linejoin:miter;stroke-dasharray:none;stroke-opacity:1"
             id="rect275"
             width="13.284498"
             height="16.470043"
             x="138.04636"
             y="104.24583"
             ry="4.2632564e-14" /><rect
             style="opacity:1;fill:#077875;fill-opacity:1;stroke:none;stroke-width:1.42406;stroke-linecap:butt;stroke-linejoin:miter;stroke-dasharray:none;stroke-opacity:1"
             id="rect276"
             width="27.44776"
             height="66.918991"
             x="113.46375"
             y="105.80853"
             ry="4.2632564e-14" /><rect
             style="opacity:1;fill:#1d656d;fill-opacity:1;stroke:none;stroke-width:1.11625;stroke-linecap:butt;stroke-linejoin:miter;stroke-dasharray:none;stroke-opacity:1"
             id="rect277"
             width="16.729357"
             height="66.918991"
             x="107.32531"
             y="114.01061" /><rect
             style="opacity:1;fill:#b43425;fill-opacity:1;stroke:none;stroke-width:1.00543;stroke-linecap:butt;stroke-linejoin:miter;stroke-dasharray:none;stroke-opacity:1"
             id="rect278"
             width="35.348461"
             height="45.786491"
             x="73.130699"
             y="126.89635" /><circle
             style="fill:#f09415;fill-opacity:1;stroke:none;stroke-width:1;stroke-dasharray:none;stroke-opacity:1"
             id="circle278"
             cx="101.08593"
             cy="102.53862"
             r="20" /><path
             id="path278"
             style="opacity:1;fill:#1d656d;fill-opacity:1;stroke:#1d656d;stroke-width:1;stroke-dasharray:none;stroke-opacity:1"
             d="m 152.06255,155.96826 a 20,20 0 0 1 -19.95847,18.71307 20,20 0 0 1 -2.58589,-0.16795 20,20 0 0 0 11.73675,3.80597 20,20 0 0 0 19.99982,-19.99981 20,20 0 0 0 -0.1385,-2.35128 z" /><path
             id="path279"
             style="opacity:1;fill:#d5491d;fill-opacity:1;stroke:#d5491d;stroke-width:1;stroke-linecap:butt;stroke-linejoin:miter;stroke-dasharray:none;stroke-opacity:1"
             d="m 123.60589,163.13113 a 20,20 0 0 0 -4.72271,12.90722 20,20 0 0 0 0.13074,2.281 h 4.59197 z" /><path
             style="opacity:1;fill:#f09415;fill-opacity:1;stroke:#f09415;stroke-width:1;stroke-linecap:butt;stroke-linejoin:miter;stroke-dasharray:none;stroke-opacity:1"
             d="m 124.07372,178.36596 16.34171,-0.004 v 9.01163 l -4.48574,7.35947 -14.21139,-7.9435 z"
             id="path280" /><path
             id="path281"
             style="opacity:1;fill:#1d656d;fill-opacity:1;stroke:#1d656d;stroke-width:0.962059;stroke-opacity:1"
             d="m 79.457826,157.13978 c 18.930085,1.96445 33.757954,19.95042 44.148174,21.17941 l -0.028,5.22082 C 110.0985,182.98009 95.838927,162.82409 78.486092,162.12406 Z" /><path
             id="path282"
             style="opacity:1;fill:#2b5c50;stroke:#2b5c50;stroke-width:0.992102"
             d="m 43.838913,147.39238 18.77255,0.004 c 4.120723,6.61331 14.998895,19.31624 11.509375,30.1428 H 43.838913 Z" /><path
             id="path283"
             style="fill:#4a584b;stroke-width:2.89578"
             d="m 63.681526,177.45236 17.495187,-7.67064 1.403165,20.69848 H 63.681526 Z" /><path
             style="fill:#d5491d;fill-opacity:1;stroke:#d5491d;stroke-width:1;stroke-linecap:butt;stroke-linejoin:miter;stroke-dasharray:none;stroke-opacity:1"
             d="m 78.754426,174.38935 18.537451,0.0809 -0.162771,-4.79179 c 0,0 -8.459521,-5.38457 -18.596202,-7.04497 0,6.15306 0.221522,11.75587 0.221522,11.75587 z"
             id="path284" /><path
             style="fill:#077875;fill-opacity:1;stroke:#077875;stroke-width:1;stroke-linecap:butt;stroke-linejoin:miter;stroke-dasharray:none;stroke-opacity:1"
             d="m 77.569982,162.64338 -16.422251,15.78777 c 0,0 -1.88362,8.04564 2.56104,9.36876 3.023415,-7.56359 6.972573,-9.40795 14.068439,-13.16758 -0.157619,-4.27413 -0.207228,-11.98895 -0.207228,-11.98895 z"
             id="path285" /><rect
             style="fill:#4a584b;fill-opacity:1;stroke:none;stroke-width:0.908927;stroke-dasharray:none;stroke-opacity:1"
             id="rect285"
             width="5.6435838"
             height="5.3606205"
             x="77.838371"
             y="188.19984" /><circle
             style="fill:#4a584b;fill-opacity:1;stroke:#4a584b;stroke-width:1;stroke-dasharray:none;stroke-opacity:1"
             id="circle285"
             cx="98.119591"
             cy="198.0352"
             r="20" /><path
             id="path286"
             style="fill:#d5491d;fill-opacity:1;stroke:#d5491d;stroke-width:0.701201;stroke-opacity:1"
             d="m 64.468506,202.86475 h 13.448798 l -0.992188,11.81666 -12.45661,2.4474 z" /><rect
             style="opacity:1;fill:#d5491d;fill-opacity:1;stroke:#d5491d;stroke-width:0.790586;stroke-linecap:butt;stroke-linejoin:miter;stroke-dasharray:none;stroke-opacity:1"
             id="rect286"
             width="3.516706"
             height="14.827643"
             x="63.825241"
             y="202.03696" /><path
             id="path287"
             style="fill:#f09415;fill-opacity:1;stroke:#f09415;stroke-width:1;stroke-dasharray:none;stroke-opacity:1"
             d="m 78.794157,203.18501 c -2.154154,7.26136 -7.244965,13.08041 -14.70285,14.40239 1.980155,0.63729 3.06718,0.5642 5.147361,0.56414 5.480306,8e-5 11.494483,-1.84664 14.418606,-6.26712 -2.36411,-2.44746 -4.218515,-5.41133 -4.863117,-8.69941 z" /><path
             id="path288"
             style="fill:#d5491d;fill-opacity:1;stroke:#d5491d;stroke-width:1;stroke-dasharray:none;stroke-opacity:1"
             d="m 63.842615,82.141756 c -11.045549,1.03e-4 -19.99971,8.954264 -19.999813,19.999814 -1.52e-4,7.55682 4.258953,14.46847 11.009147,17.86558 h 11.380184 l 2.90835,-17.37104 -0.494027,-20.492804 c -0.957592,0 -4.005191,-0.0015 -4.803841,-0.0015 z m -8.361764,8.509042 a 4.7406535,4.911077 0 0 1 4.740279,4.910811 4.7406535,4.911077 0 0 1 -4.740279,4.911331 4.7406535,4.911077 0 0 1 -4.740796,-4.911331 4.7406535,4.911077 0 0 1 4.740796,-4.910811 z" /><rect
             style="opacity:1;fill:#f09415;fill-opacity:1;stroke:none;stroke-width:1;stroke-linecap:butt;stroke-linejoin:miter;stroke-dasharray:none;stroke-opacity:1"
             id="rect288"
             width="8.8304682"
             height="4.9940104"
             x="92.393326"
             y="82.53862" /><path
             id="path289"
             style="fill:#077875;fill-opacity:1;stroke:#077875;stroke-width:1;stroke-dasharray:none;stroke-opacity:1"
             d="m 89.146629,82.141756 a 20,20 0 0 0 -1.108977,0.03049 20,20 0 0 1 -18.863448,18.916154 20,20 0 0 0 -0.0279,1.05317 20,20 0 0 0 20.00033,20.00033 20,20 0 0 0 19.999816,-20.00033 20,20 0 0 0 -19.999816,-19.999813 z" /><path
             id="path290"
             style="opacity:1;fill:#d5491d;stroke:#d5491d;stroke-width:0.962575"
             d="m 88.607307,103.12295 h 37.259113 l -7.28928,14.80409 c -10.55339,12.28909 -20.543332,13.70021 -29.969833,4.23333 z" /><path
             style="opacity:1;fill:#1d656d;fill-opacity:1;stroke:#1d656d;stroke-width:1;stroke-linecap:butt;stroke-linejoin:miter;stroke-dasharray:none;stroke-opacity:1"
             d="m 83.041513,151.916 28.463337,-29.2741 -34.42432,-0.0602 5.499346,29.70851 z"
             id="path291" /><path
             style="opacity:1;fill:#077875;fill-opacity:1;stroke:#077875;stroke-width:1;stroke-linecap:butt;stroke-linejoin:miter;stroke-dasharray:none;stroke-opacity:1"
             d="m 136.90677,190.72785 3.50866,-3.35399 -0.0165,13.92404 z"
             id="path292" /><path
             id="path293"
             style="fill:#2b5c50;fill-opacity:1;stroke:#2b5c50;stroke-width:1;stroke-dasharray:none;stroke-opacity:1"
             d="m 100.75509,198.03546 c 1e-4,11.04555 12.25403,20.49971 23.29958,20.49982 9.59475,-6e-5 16.05918,-6.38781 16.34296,-16.73726 h -16.51165 c 0,0 -23.13107,-14.80831 -23.13089,-3.76256 z" /><path
             id="path294"
             style="fill:#2b5c50;fill-opacity:1;stroke:#2b5c50;stroke-width:1.02868;stroke-linecap:butt;stroke-linejoin:miter;stroke-dasharray:none;stroke-opacity:1"
             d="m 97.61523,182.39662 0.934437,19.52126 25.009713,2.66808 -0.0165,-20.58916 c -2.28273,-0.10473 -4.45563,-0.65424 -6.57109,-1.51833 z" /><path
             id="path295"
             style="opacity:1;fill:#2b5c50;fill-opacity:1;stroke:#2b5c50;stroke-width:0.962059;stroke-opacity:1"
             d="m 108.95279,170.84724 0.039,1.19807 -2.5182,2.68976 c 3.59776,2.63237 7.57585,5.5679 11.64477,7.30498 0.0211,-0.37583 0.0316,-0.75219 0.0315,-1.12861 6e-5,-1.58881 0.17459,-2.94046 -0.19999,-4.48448 -2.78046,-1.44815 -5.71448,-3.37394 -8.99711,-5.57972 z" /><path
             id="path296"
             style="fill:#d5491d;fill-opacity:1;stroke:#d5491d;stroke-width:1;stroke-dasharray:none;stroke-opacity:1"
             d="m 105,174.87647 -6.880408,6.89331 v 19.14147 h 0.01654 c 10.291008,-7e-5 18.902178,-7.80954 19.904728,-18.05161 -4.87995,-1.6536 -9.84021,-5.71031 -13.07594,-8.01825 z" /><rect
             style="fill:#b43425;fill-opacity:1;stroke:#b43425;stroke-width:0.725382;stroke-dasharray:none;stroke-opacity:1"
             id="rect296"
             width="14.416804"
             height="14.239879"
             x="63.488407"
             y="188.56253" /><path
             style="fill:#2b5c50;fill-opacity:1;stroke:#2b5c50;stroke-width:1;stroke-dasharray:none;stroke-opacity:1"
             d="m 51.322483,207.04028 12.285984,10.07077 -0.01829,-27.37886 z"
             id="path297" /><path
             id="path298"
             style="fill:#f09415;fill-opacity:1;stroke:#f09415;stroke-width:0.746747;stroke-dasharray:none;stroke-opacity:1"
             d="m 43.716195,168.28482 v 19.51509 H 63.708773 A 20,20 0 0 0 43.716195,168.28482 Z" /><path
             id="path299"
             style="fill:#1d656d;fill-opacity:1;stroke:#1d656d;stroke-width:0.746747;stroke-dasharray:none;stroke-opacity:1"
             d="M 43.716195,208.06175 V 188.54666 H 63.708773 A 20,20 0 0 1 43.716195,208.06175 Z" /><rect
             style="fill:#d5491d;fill-opacity:1;stroke:#d5491d;stroke-width:1;stroke-dasharray:none;stroke-opacity:1"
             id="rect299"
             width="19.992579"
             height="19.515089"
             x="22.850243"
             y="147.89633" /><path
             id="path300"
             style="fill:#077875;fill-opacity:1;stroke:#077875;stroke-width:1;stroke-dasharray:none;stroke-opacity:1"
             d="m 42.842863,106.89528 a 20,20 0 0 0 -19.995162,20.00033 20,20 0 0 0 19.995162,19.99982 z" /><path
             id="path301"
             style="opacity:1;fill:#f09415;stroke:#f09415;stroke-width:1.12469"
             d="m 66.794533,122.70425 h 21.269151 l -0.142619,26.99788 c -6.310288,7.44103 -13.352466,9.21837 -21.126532,5.33203 z" /><rect
             style="fill:#d5491d;fill-opacity:1;stroke:#d5491d;stroke-width:1.34386;stroke-dasharray:none;stroke-opacity:1"
             id="rect301"
             width="25.167385"
             height="19.239862"
             x="44.021931"
             y="102.77193" /><rect
             style="fill:#d5491d;fill-opacity:1;stroke:#d5491d;stroke-width:1.12045;stroke-dasharray:none;stroke-opacity:1"
             id="rect302"
             width="17.368965"
             height="19.379549"
             x="43.903049"
             y="127.45657" /><path
             style="opacity:1;fill:#f09415;fill-opacity:1;stroke:#f09415;stroke-width:1;stroke-linecap:butt;stroke-linejoin:miter;stroke-dasharray:none;stroke-opacity:1"
             d="m 43.910718,127.46423 c 17.861911,0 10.504527,28.12253 32.751297,34.01209 0,0 -0.64617,0.63323 0.457109,-0.47005 -16.568851,0 -15.436029,-37.92858 -15.436029,-37.92858 l -17.848593,-0.91834 z"
             id="path302" /><rect
             style="fill:#b43425;fill-opacity:1;stroke:#b43425;stroke-width:1;stroke-dasharray:none;stroke-opacity:1"
             id="rect304"
             width="19.479607"
             height="19.432789"
             x="69.146423"
             y="82.141663" /><path
             id="path304"
             style="opacity:1;fill:#077875;fill-opacity:1;stroke:#077875;stroke-width:0.962059;stroke-opacity:1"
             transform="rotate(90)"
             d="m 123.06269,-68.166206 c 15.13088,0.338488 28.53689,-0.4801 34.07709,-11.29162 l 2.1367,6.25369 c -5.9939,10.144661 -22.75769,10.848898 -36.21379,10.564162 z" /><path
             id="path305"
             style="fill:#077875;fill-opacity:1;stroke:#077875;stroke-width:1;stroke-dasharray:none;stroke-opacity:1"
             d="m 89.146629,82.141756 a 20,20 0 0 0 -1.108977,0.03049 20,20 0 0 1 -18.863448,18.916154 20,20 0 0 0 -0.0279,1.05317 20,20 0 0 0 20.00033,20.00033 20,20 0 0 0 19.999816,-20.00033 20,20 0 0 0 -19.999816,-19.999813 z" /><path
             id="path308"
             style="fill:#1d656d;fill-opacity:1;stroke:#1d656d;stroke-width:1;stroke-dasharray:none;stroke-opacity:1"
             d="m 88.131866,82.147131 c -0.05577,0 -0.08483,0.0047 -0.146836,0.0047 -0.532913,10.106365 -9.240896,18.242879 -19.338445,18.922669 h 19.479431 z" /><rect
             style="fill:#077875;fill-opacity:1;stroke:#077875;stroke-width:0.988012;stroke-dasharray:none;stroke-opacity:1"
             id="rect311"
             width="20.012318"
             height="19.511986"
             x="69.140312"
             y="102.63591" /><path
             style="fill:#f09415;fill-opacity:1;stroke:none;stroke-width:1;stroke-dasharray:none;stroke-opacity:1"
             d="m 124.05467,201.27499 -25.93508,17.28945 25.93508,0.49993 z"
             id="path312" /><path
             id="path313"
             style="fill:#1d656d;fill-opacity:1;stroke:#1d656d;stroke-width:1;stroke-linecap:butt;stroke-linejoin:miter;stroke-dasharray:none;stroke-opacity:1"
             d="m 98.11959,201.91992 2e-6,16.11535 c 8.658498,-1.1e-4 15.661148,-8.40344 24.446798,-16.23111 z" /><path
             id="path316"
             style="fill:#2b5c50;fill-opacity:1;stroke:#2b5c50;stroke-width:1;stroke-dasharray:none;stroke-opacity:1"
             d="m 97.12017,189.10215 c -8.44433,0.32355 -15.812665,5.93757 -18.331698,14.06219 0.951783,3.58725 2.174469,6.16763 4.868954,8.71988 3.134271,-4.62171 7.901677,-9.11694 13.462744,-10.77867 z m 15.95045,14.62702 c 1.17052,0.71909 2.27218,1.56189 3.28403,2.52026 0.33597,-0.74548 0.6259,-1.51087 0.86817,-2.29185 -0.0203,-0.0763 -0.0409,-0.15248 -0.062,-0.22841 z" /><path
             style="fill:#1d656d;fill-opacity:1;stroke:none;stroke-width:1;stroke-linejoin:bevel;stroke-dasharray:none;stroke-opacity:1"
             d="m 103.50681,201.27499 h 20.54786 l -8.9824,7.37184 z"
             id="path317" /><rect
             style="fill:#f09415;fill-opacity:1;stroke:#f09415;stroke-width:1.30363;stroke-linecap:butt;stroke-linejoin:miter;stroke-dasharray:none;stroke-opacity:1"
             id="rect319"
             width="18.04764"
             height="12.019724"
             x="78.920135"
             y="175.52829" /><path
             style="fill:#b43425;fill-opacity:1;stroke:#b43425;stroke-width:1;stroke-linecap:butt;stroke-linejoin:miter;stroke-dasharray:none;stroke-opacity:1"
             d="m 98.11959,181.76978 c 0,0 3.45014,-3.46304 6.88041,-6.89331 -3.07541,-2.10646 -3.99401,-3.22472 -6.880409,-4.6736 z"
             id="path325" /><path
             id="path328"
             style="baseline-shift:baseline;display:inline;overflow:visible;opacity:1;vector-effect:none;fill:#4a584b;fill-opacity:1;enable-background:accumulate;stop-color:#000000;stop-opacity:1"
             d="M 71.624807,160.18803 61.493414,169.86 c 0,0 -1.902199,1.91326 -2.973989,2.76874 l -0.0894,0.0904 -0.04289,0.007 c -2.854879,2.23331 -6.443478,3.57704 -10.36991,3.57704 -1.623627,0 -3.192017,-0.22691 -4.67465,-0.65112 v 6.52518 c 1.510555,0.31164 3.074303,0.47542 4.67465,0.47542 5.868563,0 11.116902,-2.11843 15.211003,-5.75729 8.2568,-7.33868 8.308509,-9.93648 8.39658,-16.70761 z" /><path
             id="path329"
             style="fill:#4a584b;fill-opacity:1;stroke:#4a584b;stroke-width:1;stroke-dasharray:none;stroke-opacity:1"
             d="m 124.55415,184.15 v 16.64808 l 15.82459,0.003 c -0.57066,-8.25293 -8.6844,-15.4597 -15.82459,-16.651 z" /><path
             id="path332"
             style="fill:#1d656d;fill-opacity:1;stroke:#1d656d;stroke-width:1;stroke-dasharray:none;stroke-opacity:1"
             d="m 124.55415,184.15 v 16.03295 l 11.0784,-9.64678 c -2.89445,-3.28369 -6.78625,-5.52713 -11.0784,-6.38617 z" /><path
             style="opacity:1;fill:#4a584b;fill-opacity:1;stroke:#4a584b;stroke-width:1;stroke-linecap:butt;stroke-linejoin:miter;stroke-dasharray:none;stroke-opacity:1"
             d="M 62.550403,177.08267 138.60058,99.919962 134.60588,95.730723 57.044166,174.97251 Z"
             id="path333" /><path
             id="path334"
             style="fill:#1d656d;fill-opacity:1;stroke:#1d656d;stroke-width:1;stroke-dasharray:none;stroke-opacity:1"
             d="m 124.44563,75.522005 c -6.43792,2e-6 -12.18989,2.68983 -15.9475,7.917368 7.75524,2.954255 12.588,10.800195 12.58802,19.099067 -8e-5,2.18959 -0.35971,4.3643 -1.06454,6.43734 -1.64557,3.74967 -4.35632,6.06888 -4.35632,6.06888 l 6.74998,-0.18655 h 2.94194 1.27589 c 1.61616,-0.17127 3.16859,-0.51807 4.63641,-1.02113 h -2.21899 V 76.054789 c -1.4784,-0.348351 -3.02012,-0.53281 -4.60489,-0.532784 z" /><path
             id="path335"
             style="fill:#d5491d;fill-opacity:1;stroke:#d5491d;stroke-width:0.898167;stroke-dasharray:none;stroke-opacity:1"
             d="m 124.4458,75.019776 7e-5,20.582698 16.46565,9.1e-5 C 134.5253,93.822183 125.87,83.003201 124.4458,75.019776 Z" /><path
             id="path337"
             style="fill:#077875;fill-opacity:1;stroke:#077875;stroke-width:0.898167;stroke-dasharray:none;stroke-opacity:1"
             d="m 124.44587,75.521887 a 16.066228,20.08442 0 0 0 16.064,20.080587 V 75.521887 Z" /><path
             id="path341"
             style="fill:#1d656d;fill-opacity:1;stroke:#1d656d;stroke-width:1;stroke-dasharray:none;stroke-opacity:1"
             d="m 43.842802,106.91932 -0.0083,15.24003 17.790128,-0.0288 c -1.582682,-9.17632 -9.765276,-14.8119 -17.78186,-15.21118 z" /><rect
             style="fill:#d5491d;fill-opacity:1;stroke:#d5491d;stroke-width:0.555615;stroke-dasharray:none;stroke-opacity:1"
             id="rect341"
             width="17.405508"
             height="4.7554517"
             x="50.963108"
             y="100.39425" /><rect
             style="opacity:1;fill:#1d656d;fill-opacity:1;stroke:#1d656d;stroke-width:1.25465;stroke-linecap:butt;stroke-linejoin:miter;stroke-dasharray:none;stroke-opacity:1"
             id="rect342"
             width="18.711128"
             height="10.359634"
             x="69.287575"
             y="111.641" /><path
             id="path342"
             style="fill:#b43425;fill-opacity:1;stroke:#b43425;stroke-width:1.04693;stroke-dasharray:none;stroke-opacity:1"
             d="m 124.5861,114.12255 -0.0151,-17.58113 15.32384,-0.115442 c -6.54567,8.369742 -8.83886,11.558232 -15.30871,17.696572 z" /><path
             id="path343"
             style="fill:#1d656d;fill-opacity:1;stroke:#1d656d;stroke-width:0.90005;stroke-dasharray:none;stroke-opacity:1"
             d="m 124.94055,114.90761 c 4.64208,-5.9631 9.3383,-10.29767 15.57385,-17.805421 l 0.0265,17.856581 z" /><path
             style="opacity:1;fill:url(#linearGradient372);fill-opacity:1;stroke:#d5491d;stroke-width:1;stroke-linecap:butt;stroke-linejoin:miter;stroke-dasharray:none;stroke-opacity:1"
             d="m 112.91094,116.46628 2.02762,-2.09772 -2.62294,-2.92937 -4.29948,5.14284 z"
             id="path344" /><path
             id="path345"
             style="opacity:1;fill:#2b5c50;fill-opacity:1;stroke:#2b5c50;stroke-width:1.00284;stroke-linecap:butt;stroke-linejoin:miter;stroke-dasharray:none;stroke-opacity:1"
             d="m 138.88351,156.03854 c -5.39568,-1e-4 -10.56249,2.17993 -14.32729,6.04511 v 15.27658 h 15.85381 L 140.38664,155.98 c -0.50791,-0.0389 -0.99373,0.0586 -1.50313,0.0585 z" /><path
             id="path347"
             style="opacity:1;fill:#b43425;fill-opacity:1;stroke:#b43425;stroke-width:1;stroke-linecap:butt;stroke-linejoin:miter;stroke-dasharray:none;stroke-opacity:1"
             d="m 141.40946,171.07018 v 21.87153 h 19.75796 a 20,20 0 0 0 0.0873,-1.87224 20,20 0 0 0 -19.8453,-19.99929 z" /><rect
             style="opacity:1;fill:#b43425;fill-opacity:1;stroke:none;stroke-width:1;stroke-linecap:butt;stroke-linejoin:miter;stroke-dasharray:none;stroke-opacity:1"
             id="rect347"
             width="10.92552"
             height="18.630138"
             x="140.91151"
             y="155.46835" /><path
             id="path348"
             style="opacity:1;fill:#d5491d;fill-opacity:1;stroke:#d5491d;stroke-width:1;stroke-linecap:butt;stroke-linejoin:miter;stroke-dasharray:none;stroke-opacity:1"
             d="m 141.40946,171.07018 v 13.98564 l 10.42758,-10.95732 c -3.2839,-2.24823 -6.44794,-2.99751 -10.42758,-3.02832 z" /><path
             id="path349"
             style="fill:#077875;fill-opacity:1;stroke:#077875;stroke-width:1;stroke-dasharray:none;stroke-opacity:1"
             d="m 151.35872,92.069316 c -4.48561,1.421478 -7.38381,4.412083 -9.90431,8.385534 v 5.35368 l 9.90431,-0.0331 z" /><rect
             style="opacity:1;fill:#d5491d;fill-opacity:1;stroke:none;stroke-width:0.389183;stroke-linecap:butt;stroke-linejoin:miter;stroke-dasharray:none;stroke-opacity:1"
             id="rect352"
             width="10.92964"
             height="12.45102"
             x="140.90945"
             y="143.09329" /><path
             id="path352"
             style="opacity:1;fill:#b43425;fill-opacity:1;stroke:#b43425;stroke-width:1;stroke-dasharray:none;stroke-opacity:1"
             d="m 151.32668,112.67478 c -2.70232,3.6277 -5.54207,6.18255 -9.91545,7.33857 v 22.47769 c 4.36566,-1.14166 7.21607,-3.67797 9.92714,-7.28525 z" /><ellipse
             style="opacity:1;fill:#077875;fill-opacity:1;stroke:#077875;stroke-width:1;stroke-linecap:butt;stroke-linejoin:miter;stroke-dasharray:none;stroke-opacity:1"
             id="ellipse352"
             cx="148.39264"
             cy="202.19608"
             rx="4.7406535"
             ry="4.911077" /><ellipse
             style="fill:#2b5c50;fill-opacity:1;stroke:#2b5c50;stroke-width:1;stroke-linecap:butt;stroke-linejoin:miter;stroke-dasharray:none;stroke-opacity:1"
             id="ellipse353"
             cx="31.675148"
             cy="190.88016"
             rx="4.7406535"
             ry="4.911077" /><path
             id="path353"
             style="baseline-shift:baseline;display:inline;overflow:visible;opacity:1;vector-effect:none;fill:#4a584b;enable-background:accumulate;stop-color:#000000;stop-opacity:1"
             d="m 27.27172,93.929667 c -1.458987,-0.01645 -2.673114,0.02157 -3.556888,0.06718 v 4.506701 c 2.374584,-0.136812 8.210427,-0.262821 14.62288,1.168404 3.622649,0.808558 9.390624,4.372128 15.756144,7.872908 6.36552,3.50079 13.503439,6.95805 20.953243,7.09569 5.496332,0.10154 9.440752,-1.77672 13.447241,-3.52899 4.006489,-1.75227 8.203946,-3.47616 15.09934,-3.7915 1.6778,-0.0767 4.01182,-0.11854 5.38882,-0.13797 0.37104,-1.44665 0.58585,-2.95591 0.62528,-4.50877 -1.14351,0.0134 -4.09082,0.0556 -6.21926,0.15296 -7.583106,0.34679 -12.611919,2.3744 -16.699238,4.16202 -4.087318,1.78762 -7.103816,3.23663 -11.558467,3.15433 -6.069047,-0.11213 -12.677163,-3.13379 -18.869133,-6.53913 -6.191971,-3.40534 -11.795565,-7.17513 -16.943152,-8.324044 -4.5881,-1.02404 -8.890646,-1.314195 -12.04681,-1.349789 z" /><path
             id="path354"
             style="fill:url(#radialGradient372);fill-opacity:1;stroke:none;stroke-width:4.50001;stroke-opacity:1"
             d="m 144.65464,-92.043218 10.78042,8.929142 9.1906,7.744728 c 0,0 2.20975,1.795554 3.15109,2.792778 2.68721,2.824254 3.83018,6.452863 4.35356,10.270335 0.13453,1.618044 -0.024,3.017313 -0.32393,4.529996 l 5.6817,-0.542903 c 0.18541,-1.531182 0.21903,-3.103121 0.0865,-4.697968 -0.74054,-8.909989 -5.72262,-14.292113 -13.35931,-20.10151 L 150.582,-94.452574 a 31,31 0 0 0 -5.92736,2.409356 z"
             transform="rotate(94.752687)" /><path
             id="path355"
             style="fill:url(#radialGradient373);fill-opacity:1;stroke:none;stroke-width:4.50001;stroke-opacity:1"
             d="m 179.35142,-151.54708 10.31285,10.09741 -1.18457,-15.08354 c -4.77403,0.73122 -6.87781,2.53286 -9.12828,4.98613 z"
             transform="rotate(94.752687)" /><path
             id="path358"
             style="fill:url(#radialGradient374);fill-opacity:1;stroke:none;stroke-width:4.50001;stroke-opacity:1"
             d="m 143.26896,-55.432084 16.49002,-1.417927 c -0.9954,-8.042503 -4.79177,-15.330744 -11.12746,-20.383641 -1.94991,1.923757 -4.43166,3.560543 -6.73991,4.915518 z"
             transform="rotate(94.752687)" /><path
             id="path359"
             style="fill:url(#radialGradient375);fill-opacity:1;stroke:none;stroke-width:4.50001;stroke-opacity:1"
             d="m 93.396551,-53.145731 a 31,31 0 0 0 5.149028,-0.488246 c 1.19452,-2.774802 2.684691,-5.907532 4.147551,-9.184506 2.96134,-6.633691 5.8153,-14.033518 5.33522,-21.469111 -0.35421,-5.485847 -2.55282,-9.261082 -4.63102,-13.108611 -2.07821,-3.847525 -4.143948,-7.887715 -5.029521,-14.733275 -0.100905,-0.77996 -0.206298,-1.70408 -0.30334,-2.60693 a 31,31 0 0 0 -4.567274,-0.40431 c 0.122118,1.17317 0.267382,2.49122 0.409281,3.58802 0.973895,7.5283 3.411195,12.371827 5.531323,16.296979 2.120131,3.925151 3.814091,6.81122 4.101161,11.257373 0.39111,6.05747 -2.07266,12.893224 -4.953252,19.346053 -1.8151,4.066011 -3.793985,7.911069 -5.189157,11.506564 z"
             transform="rotate(94.752687)" /><path
             id="path360"
             style="fill:url(#radialGradient376);fill-opacity:1;stroke:none;stroke-width:4.50001;stroke-opacity:1"
             d="m 143.83617,-152.45075 c 0.042,0.37259 0.12708,0.73547 0.15866,1.11621 0.44696,5.37713 3.04759,10.34555 7.21141,13.77716 l 15.22406,-1.26574 -1.31356,-15.7993 -21.30465,1.79462 c 8.2e-4,0.12734 0.0101,0.25286 0.0241,0.37705 z"
             transform="rotate(94.752687)" /><path
             id="path361"
             style="fill:url(#radialGradient377);fill-opacity:1;stroke:none;stroke-width:4.50001;stroke-opacity:1"
             d="m 184.27623,-59.187902 19.44799,-1.616922 a 20,20 0 0 0 -21.10447,-18.306914 z"
             transform="rotate(94.752687)" /><path
             id="path362"
             style="fill:url(#radialGradient378);fill-opacity:1;stroke:none;stroke-width:4.50001;stroke-opacity:1"
             d="m 84.503628,-147.40319 1.384479,15.26137 10.284088,-0.86384 a 31,31 0 0 0 0.167296,-3.21438 31,31 0 0 0 -0.180763,-3.34049 c -3.173109,-2.34036 -6.476892,-4.44445 -11.6551,-7.84266 z"
             transform="rotate(94.752687)" /><path
             id="path363"
             style="fill:#1d656d;fill-opacity:1;stroke:#1d656d;stroke-width:0.90005;stroke-dasharray:none;stroke-opacity:1"
             d="m 124.94055,114.90761 c 4.64208,-5.9631 9.3383,-10.29767 15.57385,-17.805421 l 0.0265,17.856581 z" /><path
             id="path364"
             style="fill:url(#radialGradient379);fill-opacity:1;stroke:none;stroke-width:4.50001;stroke-opacity:1"
             d="m 99.749194,-160.14202 c 3.839126,2.39245 6.620496,5.01098 8.134896,9.27354 l 15.6,-1.297 a 31,31 0 0 0 0.0405,-1.58338 31,31 0 0 0 -1.08205,-8.11864 c -0.0798,-0.051 -0.16011,-0.10234 -0.2409,-0.15317 z"
             transform="rotate(94.752687)" /><path
             id="path365"
             style="fill:url(#radialGradient380);fill-opacity:1;stroke:none;stroke-width:4.50001;stroke-opacity:1"
             d="m 143.25879,-153.30813 18.56581,-1.54357 -0.90527,-10.88838 -18.56581,1.54357 z"
             transform="rotate(94.752687)" /><path
             id="path366"
             style="fill:url(#radialGradient381);fill-opacity:1;stroke:none;stroke-width:4.50001;stroke-opacity:1"
             d="m 91.347104,-34.960487 c 0.104491,1.455333 0.242976,2.662136 0.361654,3.539093 l 4.491206,-0.373403 c -0.333087,-2.355084 -0.942191,-8.16042 -0.04719,-14.669409 0.375157,-2.728357 2.163737,-6.759286 4.271476,-11.367523 a 31,31 0 0 0 -4.755598,-0.536445 c -1.878157,4.038269 -3.496389,7.813081 -3.974537,11.290462 -0.640372,4.657171 -0.573042,8.968964 -0.347011,12.117225 z"
             transform="rotate(94.752687)" /><path
             id="path367"
             style="fill:url(#radialGradient382);fill-opacity:1;stroke:none;stroke-width:4.50001;stroke-opacity:1"
             d="m 161.23553,-77.968539 2.94531,2.612839 c 0,0 2.06437,1.737118 3.00571,2.734342 l 0.0975,0.0816 0.0103,0.04219 c 2.46217,2.660022 4.09862,6.124946 4.42394,10.037878 0.13453,1.618044 0.0383,3.199842 -0.26156,4.712525 l 6.50274,-0.540643 c 0.18541,-1.531182 0.21907,-3.103124 0.0865,-4.697968 -0.48624,-5.848385 -3.03221,-10.903112 -6.99777,-14.681639 -0.94329,-0.898794 -1.81119,-1.689254 -2.61981,-2.383739 a 31,31 0 0 0 -7.19281,2.082617 z"
             transform="rotate(94.752687)" /><path
             id="path368"
             style="fill:url(#radialGradient383);fill-opacity:1;stroke:none;stroke-width:4.50001;stroke-opacity:1"
             d="m 93.238743,-117.7379 c 0.108139,1.13847 0.394356,4.07215 0.667733,6.1852 0.533579,4.12462 1.506553,7.44317 2.625851,10.24649 a 31,31 0 0 0 4.496193,-0.86229 c -1.148211,-2.67488 -2.122391,-5.79972 -2.660711,-9.96098 -0.21549,-1.66567 -0.450538,-3.9882 -0.583992,-5.35886 -1.472419,-0.2499 -2.994286,-0.33893 -4.545074,-0.24956 z"
             transform="rotate(94.752687)" /><path
             id="path369"
             style="fill:url(#radialGradient384);fill-opacity:1;stroke:none;stroke-width:4.50001;stroke-opacity:1"
             d="m 184.31172,-164.22831 a 4.7406535,4.911077 85.247313 0 0 5.28668,4.3171 4.7406535,4.911077 85.247313 0 0 4.50169,-5.13091 4.7406535,4.911077 85.247313 0 0 -0.005,-0.0587 31,31 0 0 0 -5.29523,-4.25779 4.7406535,4.911077 85.247313 0 0 -4.48774,5.13027 z"
             transform="rotate(94.752687)" /><path
             id="path370"
             style="fill:url(#radialGradient385);fill-opacity:1;stroke:none;stroke-width:4.50001;stroke-opacity:1"
             d="m 182.70514,-46.97461 a 4.7406535,4.911077 85.247313 0 0 5.28724,4.317567 4.7406535,4.911077 85.247313 0 0 4.50113,-5.13138 4.7406535,4.911077 85.247313 0 0 -5.28673,-4.31761 4.7406535,4.911077 85.247313 0 0 -4.50164,5.131423 z"
             transform="rotate(94.752687)" /></g></g></g></g></svg>
