<?xml version="1.0" encoding="utf-8"?>
<svg version="1.1" width="57.599701pt" height="9.5998001pt" id="svg17" viewBox="0 0 57.599701 9.5998001" xmlns="http://www.w3.org/2000/svg" xmlns:bx="https://boxy-svg.com">
  <defs id="defs17">
    <bx:export>
      <bx:file format="png" path="vem2025-h.png" width="3792" height="632"/>
      <bx:file format="png" href="#text1" path="Sem título.png"/>
      <bx:file format="png" href="#Layer1000" path="Sem título 2.png"/>
      <bx:file format="png" href="#object-0" path="vem2025.png" width="2821" height="3990"/>
      <bx:file format="png" href="#object-1" path="vem2025.png" width="4499" height="3990"/>
    </bx:export>
  </defs>
  <g id="object-1">
    <g transform="matrix(1, 0, 0, 1, 0.317229, 26.493679)" id="object-0" style="opacity: 0.9;">
      <text id="text1" style="fill: rgb(78, 64, 57); font-family: Geneva; font-size: 9px; font-weight: 700; white-space: pre;" x="16.061" y="0.327"><tspan style="font-weight: 400; font-size: 9px; word-spacing: 0px;" x="29.032" y="8.973">VEM</tspan><tspan style="font-size: 1px; word-spacing: 0px;"> </tspan><tspan style="font-size: 9px; word-spacing: 0px;">2025</tspan></text>
      <g id="Layer1000" transform="matrix(3.60703, 0, 0, 3.490833, 25.33713, -29.993237)" style="">
        <path d="M 10.5101,8.592 C 10.6225,8.5748 10.7124,8.539 10.7427,8.4698 10.751,8.4511 10.7569,8.3915 10.7611,8.3044 V 6.1855 C 10.7381,5.8954 10.5564,5.9847 9.3974,5.9679 L 6.9833,5.9723 6.9816,8.592 Z" style="fill:#fe872b;fill-rule:evenodd" id="path1"/>
        <path d="M 3.1971,7.4104 C 3.143,6.8347 3.4295,6.4899 3.698,6.0203 L 5.0979,3.5958 C 5.2674,3.3058 5.6962,2.6391 5.7957,2.3663 5.7903,1.2608 5.945,1.0393 5.4728,1.0025 H 4.5652 3.3577 C 3.2301,1.0424 3.1855,1.1382 3.1718,1.3486 V 2.218 7.0167 c 0.0057,0.2296 0.014,0.3747 0.0253,0.3937 z" style="fill:#b3d662;fill-rule:evenodd" id="path2"/>
        <path d="M 4.2608,7.3172 C 4.2125,7.0239 4.6666,6.9556 4.704,7.2583 4.7391,7.5426 4.3074,7.6007 4.2608,7.3172 Z M 6.9816,8.592 H 4.8578 C 4.3271,8.5909 3.7551,8.5667 3.4404,8.0436 3.4404,8.0181 3.4474,8.0234 3.4237,8.0234 L 3.4103,7.9991 c 0,-0.0255 0.0072,-0.0203 -0.0161,-0.0203 L 3.3656,7.9251 3.3564,7.904 3.3407,7.876 3.3257,7.8466 3.3126,7.8154 3.2718,7.708 C 3.2379,7.6157 3.2113,7.5088 3.2069,7.4104 3.201,7.195 3.2043,7.049 3.2774,6.8445 3.3176,6.7312 3.5022,6.4495 3.5072,6.4286 L 3.6622,6.2738 3.8974,6.1209 c 0.5696,-0.21 0.8725,-0.1486 1.4682,-0.1486 0.5391,0 1.0785,8e-4 1.6177,0 z" style="fill:#ffd059;fill-rule:evenodd" id="path3"/>
        <path d="M 8.093,3.6707 8.0729,3.6855 6.9807,4.3223 6.9805,4.331 6.9833,5.9723 9.3974,5.9679 C 9.5643,5.8223 10.4021,5.4417 10.47,5.3064 10.5721,5.1035 10.0531,4.3611 9.93,4.1462 9.8146,3.9452 9.4275,3.1353 9.2359,3.0924 9.0246,3.045 8.3294,3.6072 8.093,3.6707 Z" style="fill:#d91e3b;fill-rule:evenodd" id="path4"/>
        <path d="M 5.7957,2.3663 C 5.6962,2.6391 5.2674,3.3058 5.0979,3.5958 L 3.698,6.0203 C 3.4295,6.4899 3.143,6.8347 3.1971,7.4104 H 3.2069 C 3.201,7.195 3.2043,7.049 3.2774,6.8445 3.3176,6.7312 3.5022,6.4495 3.5072,6.4286 3.5397,6.3644 3.5967,6.3038 3.6622,6.2738 L 3.8974,6.1209 6.9805,4.331 6.9807,4.3223 6.9833,1.4769 C 6.5848,1.1526 6.4814,1.2069 6.256,1.5818 6.1495,1.7588 5.9045,2.245 5.7957,2.3663 Z" style="fill:#8ad8ed;fill-rule:evenodd" id="path5"/>
        <path d="M 6.9807,4.3223 8.0729,3.6855 8.093,3.6707 C 8.1166,3.5829 8.4262,3.0813 8.4959,2.9619 8.7045,2.606 8.8119,2.5265 8.4071,2.2895 8.2013,2.1689 7.1123,1.5102 6.9833,1.4769 Z" style="fill:#31c4f5;fill-rule:evenodd" id="path6"/>
        <path d="m 3.8974,6.1209 c 0.5696,-0.21 0.8725,-0.1486 1.4682,-0.1486 0.5391,0 1.0785,8e-4 1.6177,0 L 6.9805,4.331 Z" style="fill:#ff4c67;fill-rule:evenodd" id="path7"/>
        <path d="M 4.2608,7.3172 C 4.3074,7.6007 4.7391,7.5426 4.704,7.2583 4.6666,6.9556 4.2125,7.0239 4.2608,7.3172 Z" style="fill:#485a80;fill-rule:evenodd" id="path8"/>
        <path d="M 3.2718,7.708 C 3.2379,7.6157 3.2113,7.5088 3.2069,7.4104 H 3.1971 C 3.1799,7.4706 3.1936,7.5232 3.2074,7.5782 3.227,7.6561 3.2338,7.6919 3.2718,7.708 Z" style="fill:#96d7dd;fill-rule:evenodd" id="path9"/>
        <path d="M 3.5072,6.4286 3.6622,6.2738 C 3.5967,6.3038 3.5397,6.3644 3.5072,6.4286 Z" style="fill:#ced45e;fill-rule:evenodd" id="path10"/>
        <path d="M 3.3126,7.8154 3.2718,7.708 C 3.2591,7.7464 3.2585,7.7458 3.273,7.7791 3.2942,7.8278 3.3008,7.8088 3.3126,7.8154 Z" style="fill:#93d7e2;fill-rule:evenodd" id="path11"/>
        <path d="m 3.4404,8.0436 c 0,-0.0255 0.007,-0.0202 -0.0167,-0.0202 0,0.0255 -0.007,0.0202 0.0167,0.0202 z" style="fill:#8cd6ea;fill-rule:evenodd" id="path12"/>
        <path d="m 3.4103,7.9991 c 0,-0.0255 0.0072,-0.0203 -0.0161,-0.0203 0,0.0254 -0.0072,0.0203 0.0161,0.0203 z" style="fill:#8cd6ea;fill-rule:evenodd" id="path13"/>
        <path d="M 3.3257,7.8466 3.3126,7.8154 C 3.299,7.8697 3.3001,7.8407 3.3257,7.8466 Z" style="fill:#8dd7e7;fill-rule:evenodd" id="path14"/>
        <path d="M 3.3564,7.904 3.3407,7.876 C 3.3296,7.93 3.3298,7.9005 3.3564,7.904 Z" style="fill:#8dd7e7;fill-rule:evenodd" id="path15"/>
        <path d="M 3.3407,7.876 3.3257,7.8466 C 3.3148,7.8999 3.3152,7.8706 3.3407,7.876 Z" style="fill:#8dd7e7;fill-rule:evenodd" id="path16"/>
        <path d="M 3.3656,7.9251 3.3564,7.904 C 3.3483,7.9295 3.3413,7.9251 3.3656,7.9251 Z" style="fill:#8dd7e7;fill-rule:evenodd" id="path17"/>
      </g>
    </g>
  </g>
</svg>